<?xml version="1.0" encoding="UTF-8"?>
<svg version="1.1" viewBox="0 0 48 48" xmlns="http://www.w3.org/2000/svg">
<path d="m13.565 29.304q-0.82608 0-1.3695-0.52173-0.54347-0.52173-0.54347-1.3913 0-0.82608 0.52173-1.3695 0.52173-0.54347 1.3913-0.54347 0.82608 0 1.3695 0.52173 0.54347 0.52173 0.54347 1.3913 0 0.82608-0.52173 1.3695-0.52173 0.54347-1.3913 0.54347zm0 7.0434q-0.82608 0-1.3695-0.52173-0.54347-0.52173-0.54347-1.3913 0-0.82608 0.52173-1.3695 0.52173-0.54347 1.3913-0.54347 0.82608 0 1.3695 0.52173 0.54347 0.52173 0.54347 1.3913 0 0.82608-0.52173 1.3695-0.52173 0.54347-1.3913 0.54347zm0-13.826q-0.82608 0-1.3695-0.52173-0.54347-0.52173-0.54347-1.3913 0-0.82608 0.52173-1.3695 0.52173-0.54347 1.3913-0.54347 0.82608 0 1.3695 0.52173 0.54347 0.52173 0.54347 1.3913 0 0.82608-0.52173 1.3695-0.52173 0.54347-1.3913 0.54347zm-5.1738-0.73912q-0.52173 0-0.84781-0.32608t-0.32608-0.84781 0.32608-0.84781q0.32608-0.32608 0.84781-0.32608t0.84781 0.32608q0.32608 0.32608 0.32608 0.84781t-0.32608 0.84781q-0.32608 0.32608-0.84781 0.32608zm5.1738-6.3043q-0.82608 0-1.3695-0.52173-0.54347-0.52173-0.54347-1.3913 0-0.82608 0.52173-1.3695 0.52173-0.54347 1.3913-0.54347 0.82608 0 1.3695 0.52173 0.54347 0.52173 0.54347 1.3913 0 0.82608-0.52173 1.3695-0.52173 0.54347-1.3913 0.54347zm26.043 6.3043q-0.52173 0-0.84782-0.32608-0.32608-0.32608-0.32608-0.84781t0.32608-0.84781q0.32608-0.32608 0.84782-0.32608 0.52173 0 0.84781 0.32608 0.32608 0.32608 0.32608 0.84781t-0.32608 0.84781q-0.32608 0.32608-0.84781 0.32608zm-12.217-6.3043q-0.82608 0-1.3695-0.52173-0.54347-0.52173-0.54347-1.3913 0-0.82608 0.52173-1.3695 0.52173-0.54347 1.3913-0.54347 0.82608 0 1.3695 0.52173 0.54347 0.52173 0.54347 1.3913 0 0.82608-0.52173 1.3695-0.52173 0.54347-1.3913 0.54347zm0-5.913q-0.52173 0-0.84781-0.32608-0.32608-0.32608-0.32608-0.84781t0.32608-0.84781q0.32608-0.32608 0.84781-0.32608 0.52173 0 0.84781 0.32608 0.32608 0.32608 0.32608 0.84781t-0.32608 0.84781q-0.32608 0.32608-0.84781 0.32608zm-18.999 18.999q-0.52173 0-0.84781-0.32608-0.32608-0.32608-0.32608-0.84782 0-0.52173 0.32608-0.84781 0.32608-0.32608 0.84781-0.32608t0.84781 0.32608q0.32608 0.32608 0.32608 0.84781 0 0.52173-0.32608 0.84782-0.32608 0.32608-0.84781 0.32608zm12.217 12.217q-0.52173 0-0.84781-0.32608-0.32608-0.32608-0.32608-0.84781 0-0.52173 0.32608-0.84781 0.32608-0.32608 0.84781-0.32608 0.52173 0 0.84781 0.32608 0.32608 0.32608 0.32608 0.84781 0 0.52173-0.32608 0.84781-0.32608 0.32608-0.84781 0.32608zm0-31.217q-0.52173 0-0.84781-0.32608-0.32608-0.32608-0.32608-0.84781t0.32608-0.84781q0.32608-0.32608 0.84781-0.32608 0.52173 0 0.84781 0.32608 0.32608 0.32608 0.32608 0.84781t-0.32608 0.84781q-0.32608 0.32608-0.84781 0.32608zm0 5.913q-0.82608 0-1.3695-0.52173-0.54347-0.52173-0.54347-1.3913 0-0.82608 0.52173-1.3695 0.52173-0.54347 1.3913-0.54347 0.82608 0 1.3695 0.52173 0.54347 0.52173 0.54347 1.3913 0 0.82608-0.52173 1.3695-0.52173 0.54347-1.3913 0.54347zm0 14.522q-1.0435 0-1.8261-0.7826t-0.7826-1.8261q0-1.0869 0.7826-1.8477 0.7826-0.76086 1.8261-0.76086 1.0869 0 1.8477 0.76086t0.76086 1.8477q0 1.0435-0.76086 1.8261t-1.8477 0.7826zm13.826-0.69564q-0.82608 0-1.3695-0.52173-0.54347-0.52173-0.54347-1.3913 0-0.82608 0.52173-1.3695 0.52173-0.54347 1.3913-0.54347 0.82608 0 1.3695 0.52173 0.54347 0.52173 0.54347 1.3913 0 0.82608-0.52173 1.3695-0.52173 0.54347-1.3913 0.54347zm0 7.0434q-0.82608 0-1.3695-0.52173-0.54347-0.52173-0.54347-1.3913 0-0.82608 0.52173-1.3695 0.52173-0.54347 1.3913-0.54347 0.82608 0 1.3695 0.52173 0.54347 0.52173 0.54347 1.3913 0 0.82608-0.52173 1.3695-0.52173 0.54347-1.3913 0.54347zm0-13.826q-0.82608 0-1.3695-0.52173-0.54347-0.52173-0.54347-1.3913 0-0.82608 0.52173-1.3695 0.52173-0.54347 1.3913-0.54347 0.82608 0 1.3695 0.52173 0.54347 0.52173 0.54347 1.3913 0 0.82608-0.52173 1.3695-0.52173 0.54347-1.3913 0.54347zm0-7.0434q-0.82608 0-1.3695-0.52173-0.54347-0.52173-0.54347-1.3913 0-0.82608 0.52173-1.3695 0.52173-0.54347 1.3913-0.54347 0.82608 0 1.3695 0.52173 0.54347 0.52173 0.54347 1.3913 0 0.82608-0.52173 1.3695-0.52173 0.54347-1.3913 0.54347zm5.1738 13.086q-0.52173 0-0.84781-0.32608-0.32608-0.32608-0.32608-0.84781t0.32608-0.84781q0.32608-0.32608 0.84781-0.32608 0.52173 0 0.84781 0.32608 0.32608 0.32608 0.32608 0.84781t-0.32608 0.84781q-0.32608 0.32608-0.84781 0.32608zm-12.217 7.7825q-0.82608 0-1.3695-0.52173-0.54347-0.52173-0.54347-1.3913 0-0.82608 0.52173-1.3695 0.52173-0.54347 1.3913-0.54347 0.82608 0 1.3695 0.52173 0.54347 0.52173 0.54347 1.3913 0 0.82608-0.52173 1.3695-0.52173 0.54347-1.3913 0.54347zm0.26087 4.4347q-0.52173 0-0.84781-0.32608-0.32608-0.32608-0.32608-0.84781 0-0.52173 0.32608-0.84782 0.32608-0.32608 0.84781-0.32608 0.52173 0 0.84782 0.32608 0.32608 0.32608 0.32608 0.84782 0 0.52173-0.32608 0.84781-0.32608 0.32608-0.84782 0.32608zm-7.0434-17.565q-1.0435 0-1.8261-0.7826-0.7826-0.7826-0.7826-1.8261 0-1.0869 0.7826-1.8477 0.7826-0.76086 1.8261-0.76086 1.0869 0 1.8477 0.76086 0.76086 0.76086 0.76086 1.8477 0 1.0435-0.76086 1.8261-0.76086 0.7826-1.8477 0.7826zm0 13.13q-0.82608 0-1.3695-0.52173-0.54347-0.52173-0.54347-1.3913 0-0.82608 0.52173-1.3695 0.52173-0.54347 1.3913-0.54347 0.82608 0 1.3695 0.52173 0.54347 0.52173 0.54347 1.3913 0 0.82608-0.52173 1.3695-0.52173 0.54347-1.3913 0.54347zm6.7825-6.3477q-1.0435 0-1.8261-0.7826-0.7826-0.7826-0.7826-1.8261 0-1.0869 0.7826-1.8477 0.7826-0.76086 1.8261-0.76086 1.0869 0 1.8477 0.76086 0.76086 0.76086 0.76086 1.8477 0 1.0435-0.76086 1.8261-0.76086 0.7826-1.8477 0.7826zm0-6.7825q-1.0435 0-1.8261-0.7826t-0.7826-1.8261q0-1.0869 0.7826-1.8477 0.7826-0.76086 1.8261-0.76086 1.0869 0 1.8477 0.76086 0.76086 0.76086 0.76086 1.8477 0 1.0435-0.76086 1.8261t-1.8477 0.7826z" stroke-width=".86955"/>
</svg>
