<?xml version="1.0" encoding="utf-8"?>
<!-- Generator: Adobe Illustrator 26.3.1, SVG Export Plug-In . SVG Version: 6.00 Build 0)  -->
<svg version="1.1" id="Layer_1" xmlns="http://www.w3.org/2000/svg" xmlns:xlink="http://www.w3.org/1999/xlink" x="0px" y="0px"
	 viewBox="0 0 48 48" style="enable-background:new 0 0 48 48;" xml:space="preserve">
<style type="text/css">
	.st0{fill:#FFFFFF;stroke:#000000;stroke-width:3;stroke-miterlimit:10;}
</style>
<path d="M11,34c-0.8,0-1.5-0.3-2.1-0.9S8,31.8,8,31V11c0-0.8,0.3-1.5,0.9-2.1S10.2,8,11,8h32c0.8,0,1.5,0.3,2.1,0.9S46,10.2,46,11
	v20c0,0.8-0.3,1.5-0.9,2.1S43.8,34,43,34H11z M16,31h22c2,0,4.1,0.1,4.7-0.8c0.6-0.8,0.3-2.4,0.3-4.2V16c-0.1-2.3,0.1-3.8-0.5-4.4
	c-0.6-0.7-2-0.6-4.5-0.6H16c-2.3,0-3.6,0.1-4.3,0.6C10.9,12.1,11,13.3,11,16v10c0,2.3-0.2,3.8,0.3,4.5C11.8,31.3,13.3,31,16,31
	L16,31z M40,40H5c-0.8,0-1.5-0.3-2.1-0.9S2,37.8,2,37V14h3v23h35V40z"/>
<line class="st0" x1="27" y1="14" x2="27" y2="27.8"/>
<line class="st0" x1="19.7" y1="20.8" x2="34.3" y2="20.8"/>
</svg>
