<?xml version="1.0" encoding="UTF-8"?>
<svg version="1.1" viewBox="0 0 48 48" xmlns="http://www.w3.org/2000/svg">
<path d="m10.305 41.303v-23.555h5.7975v-4.1541q0-3.2868 2.3053-5.5921 2.3053-2.3053 5.5921-2.3053t5.5921 2.3053q2.3053 2.3053 2.3053 5.5921v4.1541h5.7975v23.555zm7.8974-23.555h11.595v-4.1541q0-2.4194-1.689-4.1313-1.689-1.7119-4.1085-1.7119t-4.1085 1.7119q-1.689 1.7119-1.689 4.1313zm-5.8431 21.501h23.281v-19.401h-23.281zm11.641-6.6192q1.2782 0 2.1912-0.89016 0.91299-0.89017 0.91299-2.1684 0-1.1869-0.91299-2.1684-0.91299-0.98146-2.1912-0.98146t-2.1912 0.98146q-0.91299 0.98146-0.91299 2.214 0 1.2325 0.91299 2.1227 0.91299 0.89016 2.1912 0.89016zm-11.641 6.6192v-19.401z" stroke-width=".91299"/>
</svg>
