<?xml version="1.0" encoding="UTF-8"?>
<svg version="1.1" viewBox="0 0 48 48" xmlns="http://www.w3.org/2000/svg">
<path d="m25.545 39.244c-1.9265 0-3.7971-0.36296-5.612-1.0889s-3.3923-1.7171-4.7325-2.9735l1.8009-1.8009c1.1168 1.033 2.4221 1.8497 3.9158 2.45 1.4937 0.60031 3.0363 0.90043 4.6278 0.90043 3.4901 0 6.4845-1.2495 8.9833-3.7483 2.4988-2.4988 3.7483-5.4933 3.7483-8.9833s-1.2495-6.4845-3.7483-8.9833c-2.4988-2.4988-5.4933-3.7483-8.9833-3.7483s-6.4845 1.2495-8.9833 3.7483c-2.4988 2.4988-3.7483 5.4933-3.7483 8.9833v0.75385l2.9316-2.9316 1.759 1.759-5.947 5.947-5.947-5.947 1.759-1.759 2.9316 2.9316v-0.75385c0-2.1219 0.39786-4.1043 1.1936-5.947 0.79573-1.8427 1.8846-3.4551 3.2667-4.8372 1.3821-1.3821 2.9944-2.4709 4.8372-3.2667 1.8427-0.79573 3.8251-1.1936 5.947-1.1936s4.1043 0.39786 5.947 1.1936c1.8427 0.79573 3.4551 1.8846 4.8372 3.2667s2.4709 2.9944 3.2667 4.8372c0.79573 1.8427 1.1936 3.8251 1.1936 5.947 0 4.2439-1.4798 7.8456-4.4393 10.805s-6.5612 4.4393-10.805 4.4393z" stroke-width=".83761"/>
</svg>
