<?xml version="1.0" encoding="UTF-8"?>
<svg version="1.1" viewBox="0 0 48 48" xmlns="http://www.w3.org/2000/svg">
<path d="m37.6 32-7-7.05v-17.95h-13.25v4.8l-3-3v-1.8q0-1.2 0.9-2.1t2.1-0.9h13.25q1.25 0 2.125 0.875t0.875 2.125v16l4 6zm5.1 13.65-13.65-13.65h-3.45v10.5l-1.5 1.5-1.5-1.5v-10.5h-12.25v-3l4-6v-5.65l-9.2-9.2 2.15-2.15 37.5 37.55zm-28.6-16.65h12l-8.75-8.75v3.75zm9.9-10.65zm-2.3 6.3z" display="none"/>
<path d="m15.792 17.891v4.8636l-3.4433 5.1649v2.5825h10.545v9.0386l1.2912 1.2912 1.2912-1.2912v-9.0386h10.33v-2.5825l-3.4433-5.1649v-13.773c0-1.56-0.93347-2.5825-2.5825-2.5825h-11.406c-1.1871 0-2.5824 0.79211-2.5824 2.5825z" stroke-width=".86082"/>
<path d="m18.375 8.9819h11.406v15.452l2.6423 3.4863h-16.846l2.7977-4.3041z" fill="#fff" stroke-width=".86082"/>
</svg>
